<svg width="100" height="100" viewBox="0 0 100 100" fill="none" xmlns="http://www.w3.org/2000/svg">
<path d="M15.5958 11.7333C15.6731 10.7929 16.1099 9.91864 16.8154 9.29217C17.5209 8.6657 18.4407 8.33527 19.3835 8.36962C20.3264 8.40396 21.2197 8.80043 21.8778 9.47657C22.5358 10.1527 22.9079 11.0565 22.9166 11.9999V30.7249C22.9166 31.4156 23.191 32.078 23.6793 32.5663C24.1677 33.0547 24.8301 33.3291 25.5208 33.3291C26.2114 33.3291 26.8738 33.0547 27.3622 32.5663C27.8506 32.078 28.1249 31.4156 28.1249 30.7249V11.4583C28.1249 10.6295 28.4542 9.83459 29.0402 9.24854C29.6263 8.66249 30.4211 8.33325 31.2499 8.33325C32.0787 8.33325 32.8736 8.66249 33.4596 9.24854C34.0457 9.83459 34.3749 10.6295 34.3749 11.4583V30.7249C34.3749 31.4156 34.6493 32.078 35.1377 32.5663C35.626 33.0547 36.2884 33.3291 36.9791 33.3291C37.6698 33.3291 38.3321 33.0547 38.8205 32.5663C39.3089 32.078 39.5833 31.4156 39.5833 30.7249V11.9999C39.592 11.0565 39.964 10.1527 40.6221 9.47657C41.2801 8.80043 42.1734 8.40396 43.1163 8.36962C44.0591 8.33527 44.979 8.6657 45.6844 9.29217C46.3899 9.91864 46.8267 10.7929 46.9041 11.7333C47.0833 14.2833 47.9166 26.5416 47.9166 33.3333C47.9166 38.9583 45.1249 43.9333 40.8666 46.9458C39.9666 47.5833 39.7499 48.2582 39.7708 48.5999C40.2833 56.4249 41.6666 77.8416 41.6666 81.2374C41.6666 84.0001 40.5691 86.6496 38.6156 88.6031C36.6621 90.5566 34.0126 91.6541 31.2499 91.6541C28.4872 91.6541 25.8377 90.5566 23.8842 88.6031C21.9307 86.6496 20.8333 84.0001 20.8333 81.2374C20.8333 77.8374 22.2166 56.4249 22.7291 48.5999C22.7499 48.2582 22.5333 47.5833 21.6333 46.9458C19.4545 45.4066 17.6771 43.3669 16.4503 40.9982C15.2235 38.6294 14.5832 36.0008 14.5833 33.3333C14.5833 26.5416 15.4166 14.2833 15.5958 11.7333ZM54.1666 32.2916C54.1666 25.9374 56.6908 19.8435 61.1838 15.3505C65.6769 10.8574 71.7708 8.33325 78.1249 8.33325C78.9537 8.33325 79.7486 8.66249 80.3346 9.24854C80.9207 9.83459 81.2499 10.6295 81.2499 11.4583V46.8749C81.2499 48.1999 81.6916 54.7708 82.1874 62.0499L82.2082 62.3958C82.7499 70.3458 83.3333 78.9916 83.3333 81.2374C83.3333 84.0001 82.2358 86.6496 80.2823 88.6031C78.3288 90.5566 75.6793 91.6541 72.9166 91.6541C70.1539 91.6541 67.5044 90.5566 65.5509 88.6031C63.5974 86.6496 62.4999 84.0001 62.4999 81.2374C62.4999 79.0957 63.0332 70.3582 63.5499 62.3458C63.8083 58.2999 64.0707 54.3791 64.2666 51.4707L64.3624 49.9999H61.4583C60.5007 49.9999 59.5525 49.8113 58.6679 49.4449C57.7832 49.0784 56.9794 48.5413 56.3023 47.8642C55.6252 47.1871 55.0881 46.3833 54.7216 45.4986C54.3552 44.614 54.1666 43.6658 54.1666 42.7083V32.2916Z" fill="#172742"/>
</svg>
