<svg width="110" height="110" viewBox="0 0 110 110" fill="none" xmlns="http://www.w3.org/2000/svg">
<path d="M34.9112 39.93L49.6008 29.26C51.2506 28.0548 53.2558 27.4354 55.2979 27.5C57.7882 27.5648 60.1968 28.4025 62.1898 29.8971C64.1829 31.3917 65.6618 33.4692 66.4216 35.8417C67.2741 38.5153 68.0533 40.3196 68.7591 41.2546C70.8933 44.0987 73.66 46.4071 76.8404 47.9973C80.0207 49.5875 83.5275 50.4158 87.0833 50.4167V59.5833C82.351 59.5865 77.6769 58.5413 73.3967 56.5229C69.1165 54.5044 65.3366 51.5629 62.3287 47.9096L59.1295 66.0412L68.5758 73.9658L78.7645 101.961L70.1479 105.096L60.8024 79.4108L45.2649 66.3712C43.989 65.3421 43.0124 63.9897 42.4369 62.4549C41.8613 60.92 41.7078 59.2589 41.9924 57.6446L44.3254 44.4217L41.2224 46.6767L31.4737 60.0967L24.0579 54.7067L34.8333 39.875L34.9112 39.93ZM61.8749 25.2083C59.4438 25.2083 57.1122 24.2426 55.3931 22.5235C53.6741 20.8044 52.7083 18.4728 52.7083 16.0417C52.7083 13.6105 53.6741 11.2789 55.3931 9.55985C57.1122 7.84077 59.4438 6.875 61.8749 6.875C64.3061 6.875 66.6377 7.84077 68.3568 9.55985C70.0758 11.2789 71.0416 13.6105 71.0416 16.0417C71.0416 18.4728 70.0758 20.8044 68.3568 22.5235C66.6377 24.2426 64.3061 25.2083 61.8749 25.2083ZM48.2624 85.6212L33.5316 103.175L26.5099 97.2858L40.1454 81.0333L43.5645 71.0417L51.7733 77.9167L48.2624 85.6212Z" fill="#172742"/>
</svg>
