<svg width="128" height="128" viewBox="0 0 128 128" fill="none" xmlns="http://www.w3.org/2000/svg">
<path d="M21.3334 64C22.7479 64 24.1045 64.5619 25.1046 65.5621C26.1048 66.5623 26.6667 67.9188 26.6667 69.3333C26.6667 70.7478 26.1048 72.1044 25.1046 73.1046C24.1045 74.1048 22.7479 74.6667 21.3334 74.6667H16.0001C14.5856 74.6667 13.229 74.1048 12.2288 73.1046C11.2287 72.1044 10.6667 70.7478 10.6667 69.3333C10.6667 67.9188 11.2287 66.5623 12.2288 65.5621C13.229 64.5619 14.5856 64 16.0001 64H21.3334ZM112 64C113.415 64 114.771 64.5619 115.771 65.5621C116.772 66.5623 117.333 67.9188 117.333 69.3333C117.333 70.7478 116.772 72.1044 115.771 73.1046C114.771 74.1048 113.415 74.6667 112 74.6667H106.667C105.252 74.6667 103.896 74.1048 102.896 73.1046C101.895 72.1044 101.333 70.7478 101.333 69.3333C101.333 67.9188 101.895 66.5623 102.896 65.5621C103.896 64.5619 105.252 64 106.667 64H112ZM33.6374 31.4293L37.3707 35.1627C38.3423 36.1685 38.8798 37.5158 38.8677 38.9141C38.8555 40.3125 38.2946 41.6502 37.3058 42.639C36.3169 43.6279 34.9793 44.1888 33.5809 44.2009C32.1825 44.2131 30.8353 43.6755 29.8294 42.704L26.0961 38.9707C25.1246 37.9648 24.587 36.6176 24.5992 35.2192C24.6113 33.8208 25.1722 32.4831 26.161 31.4943C27.1499 30.5055 28.4876 29.9446 29.8859 29.9324C31.2843 29.9203 32.6315 30.4578 33.6374 31.4293ZM101.904 31.4293C102.904 32.4295 103.466 33.7858 103.466 35.2C103.466 36.6142 102.904 37.9705 101.904 38.9707L98.1707 42.704C97.1649 43.6755 95.8176 44.2131 94.4193 44.2009C93.0209 44.1888 91.6832 43.6279 90.6944 42.639C89.7055 41.6502 89.1446 40.3125 89.1325 38.9141C89.1203 37.5158 89.6579 36.1685 90.6294 35.1627L94.3627 31.4293C95.3629 30.4295 96.7192 29.8678 98.1334 29.8678C99.5476 29.8678 100.904 30.4295 101.904 31.4293ZM64.0001 16C65.4146 16 66.7711 16.5619 67.7713 17.5621C68.7715 18.5623 69.3334 19.9188 69.3334 21.3333V26.6667C69.3334 28.0812 68.7715 29.4377 67.7713 30.4379C66.7711 31.4381 65.4146 32 64.0001 32C62.5856 32 61.229 31.4381 60.2288 30.4379C59.2286 29.4377 58.6667 28.0812 58.6667 26.6667V21.3333C58.6667 19.9188 59.2286 18.5623 60.2288 17.5621C61.229 16.5619 62.5856 16 64.0001 16ZM16.0001 85.3333H112C113.415 85.3333 114.771 85.8952 115.771 86.8954C116.772 87.8956 117.333 89.2522 117.333 90.6667C117.333 92.0812 116.772 93.4377 115.771 94.4379C114.771 95.4381 113.415 96 112 96H16.0001C14.5856 96 13.229 95.4381 12.2288 94.4379C11.2287 93.4377 10.6667 92.0812 10.6667 90.6667C10.6667 89.2522 11.2287 87.8956 12.2288 86.8954C13.229 85.8952 14.5856 85.3333 16.0001 85.3333ZM64.0001 42.6667C68.4295 42.6655 72.7894 43.7677 76.6861 45.8737C80.5828 47.9798 83.8935 51.0233 86.3192 54.7294C88.745 58.4355 90.2094 62.6875 90.5801 67.1013C90.9508 71.5152 90.2163 75.9518 88.4427 80.0107H39.5574C37.7839 75.9518 37.0493 71.5152 37.4201 67.1013C37.7908 62.6875 39.2552 58.4355 41.6809 54.7294C44.1067 51.0233 47.4174 47.9798 51.3141 45.8737C55.2108 43.7677 59.5707 42.6655 64.0001 42.6667ZM64.0001 101.333C65.4146 101.333 66.7711 101.895 67.7713 102.895C68.7715 103.896 69.3334 105.252 69.3334 106.667C69.3334 108.081 68.7715 109.438 67.7713 110.438C66.7711 111.438 65.4146 112 64.0001 112H37.3334C35.9189 112 34.5624 111.438 33.5622 110.438C32.562 109.438 32.0001 108.081 32.0001 106.667C32.0001 105.252 32.562 103.896 33.5622 102.895C34.5624 101.895 35.9189 101.333 37.3334 101.333H64.0001ZM90.6667 101.333C92.0812 101.333 93.4378 101.895 94.438 102.895C95.4382 103.896 96.0001 105.252 96.0001 106.667C96.0001 108.081 95.4382 109.438 94.438 110.438C93.4378 111.438 92.0812 112 90.6667 112H85.3334C83.9189 112 82.5624 111.438 81.5622 110.438C80.562 109.438 80.0001 108.081 80.0001 106.667C80.0001 105.252 80.562 103.896 81.5622 102.895C82.5624 101.895 83.9189 101.333 85.3334 101.333H90.6667Z" fill="#172742"/>
</svg>
