<svg width="100" height="100" viewBox="0 0 100 100" fill="none" xmlns="http://www.w3.org/2000/svg">
<path fill-rule="evenodd" clip-rule="evenodd" d="M93.625 15.625C93.7101 14.5855 93.7518 13.543 93.75 12.5V6.25H82.8125C74.6976 6.24865 66.8011 8.87969 60.3088 13.7481C53.8164 18.6166 49.0784 25.4596 46.8063 33.25C43.3039 28.7322 38.8136 25.0765 33.6794 22.5631C28.5453 20.0496 22.9038 18.7453 17.1875 18.75H6.25V25C6.25 34.9456 10.2009 44.4839 17.2335 51.5165C24.2661 58.5491 33.8044 62.5 43.75 62.5H45.3125V89.0625C45.3125 90.3057 45.8064 91.498 46.6854 92.3771C47.5645 93.2561 48.7568 93.75 50 93.75C51.2432 93.75 52.4355 93.2561 53.3146 92.3771C54.1936 91.498 54.6875 90.3057 54.6875 89.0625V50H56.25C65.6556 50.0014 74.7183 46.4682 81.6411 40.1011C88.5639 33.734 92.8412 24.9979 93.625 15.625ZM54.8563 40.625C55.625 33.7488 58.9015 27.3973 64.0591 22.7851C69.2167 18.1729 75.8935 15.6237 82.8125 15.625H84.2063C83.4375 22.5012 80.161 28.8527 75.0034 33.4649C69.8458 38.0771 63.1691 40.6263 56.25 40.625H54.8563ZM17.1875 28.125C24.1065 28.1237 30.7833 30.6729 35.9409 35.2851C41.0985 39.8973 44.375 46.2488 45.1438 53.125H43.75C36.831 53.1263 30.1542 50.5771 24.9966 45.9649C19.839 41.3527 16.5625 35.0012 15.7938 28.125H17.1875Z" fill="#172742"/>
</svg>
