<svg width="56" height="67" viewBox="0 0 56 67" fill="none" xmlns="http://www.w3.org/2000/svg">
<path fill-rule="evenodd" clip-rule="evenodd" d="M26.77 36.8902C26.77 36.8902 14.6667 26.6968 14.6667 16.6668C14.6667 13.1306 16.0714 9.73922 18.5719 7.23874C21.0724 4.73825 24.4638 3.3335 28 3.3335C31.5362 3.3335 34.9276 4.73825 37.4281 7.23874C39.9286 9.73922 41.3334 13.1306 41.3334 16.6668C41.3334 26.6968 29.23 36.8902 29.23 36.8902C28.5567 37.5102 27.4484 37.5035 26.77 36.8902ZM28 22.5002C28.7661 22.5002 29.5246 22.3493 30.2323 22.0561C30.9401 21.763 31.5831 21.3333 32.1248 20.7916C32.6665 20.2499 33.0962 19.6069 33.3893 18.8991C33.6825 18.1914 33.8334 17.4329 33.8334 16.6668C33.8334 15.9008 33.6825 15.1422 33.3893 14.4345C33.0962 13.7268 32.6665 13.0837 32.1248 12.542C31.5831 12.0004 30.9401 11.5707 30.2323 11.2775C29.5246 10.9844 28.7661 10.8335 28 10.8335C26.4529 10.8335 24.9692 11.4481 23.8752 12.542C22.7813 13.636 22.1667 15.1197 22.1667 16.6668C22.1667 18.2139 22.7813 19.6977 23.8752 20.7916C24.9692 21.8856 26.4529 22.5002 28 22.5002Z" fill="#172742"/>
<path d="M18.2223 53.34H15.4023V62.54H13.3423V44.48H15.4023V51.64H18.2223V53.34ZM7.74234 48.94C7.74234 52.16 9.44234 55.44 12.1423 56.76L10.8823 58.4C8.94234 57.38 7.50234 55.5 6.72234 53.08C5.94234 55.58 4.44234 57.68 2.36234 58.74L1.10234 57.08C3.94234 55.7 5.68234 52.28 5.68234 48.94V45.98H7.74234V48.94ZM36.4808 48.94V50.64H33.9208V55.32H31.8608V44.46H33.9208V48.94H36.4808ZM29.2408 54.36C27.3008 53.66 25.8808 52.28 25.1008 50.58C24.3008 52.58 22.8208 54.08 20.7408 54.86L19.6408 53.22C22.4808 52.26 24.0208 49.8 24.0208 47.18V45.4H26.1008V47.34C26.1008 49.68 27.6408 51.82 30.3208 52.74L29.2408 54.36ZM28.1008 55.76C31.8608 55.76 34.1208 57 34.1208 59.14C34.1208 61.28 31.8608 62.54 28.1008 62.54C24.3808 62.54 22.0808 61.28 22.0808 59.14C22.0808 57 24.3808 55.76 28.1008 55.76ZM28.1008 60.92C30.6808 60.92 32.0808 60.34 32.0808 59.14C32.0808 58.02 30.6808 57.38 28.1008 57.38C25.5208 57.38 24.1208 58.02 24.1208 59.14C24.1208 60.34 25.5208 60.92 28.1008 60.92ZM54.5592 55H47.3592V62.54H45.2792V55H38.2192V53.3H49.9592C50.4992 50.8 50.4792 48.9 50.4792 47.24H40.1792V45.58H52.4992V47.16C52.4992 48.86 52.4992 50.74 52.0392 53.3H54.5592V55Z" fill="#333333"/>
</svg>
