<svg width="56" height="67" viewBox="0 0 56 67" fill="none" xmlns="http://www.w3.org/2000/svg">
<path fill-rule="evenodd" clip-rule="evenodd" d="M26.77 36.8902C26.77 36.8902 14.6667 26.6968 14.6667 16.6668C14.6667 13.1306 16.0714 9.73922 18.5719 7.23874C21.0724 4.73825 24.4638 3.3335 28 3.3335C31.5362 3.3335 34.9276 4.73825 37.4281 7.23874C39.9286 9.73922 41.3334 13.1306 41.3334 16.6668C41.3334 26.6968 29.23 36.8902 29.23 36.8902C28.5567 37.5102 27.4484 37.5035 26.77 36.8902ZM28 22.5002C28.7661 22.5002 29.5246 22.3493 30.2323 22.0561C30.9401 21.763 31.5831 21.3333 32.1248 20.7916C32.6665 20.2499 33.0962 19.6069 33.3893 18.8991C33.6825 18.1914 33.8334 17.4329 33.8334 16.6668C33.8334 15.9008 33.6825 15.1422 33.3893 14.4345C33.0962 13.7268 32.6665 13.0837 32.1248 12.542C31.5831 12.0004 30.9401 11.5707 30.2323 11.2775C29.5246 10.9844 28.7661 10.8335 28 10.8335C26.4529 10.8335 24.9692 11.4481 23.8752 12.542C22.7813 13.636 22.1667 15.1197 22.1667 16.6668C22.1667 18.2139 22.7813 19.6977 23.8752 20.7916C24.9692 21.8856 26.4529 22.5002 28 22.5002Z" fill="#172742"/>
<path d="M18.0823 48.94V50.64H15.5223V55.1H13.4623V44.48H15.5223V48.94H18.0823ZM10.6023 45.74C10.6023 50.46 7.48234 53.8 2.20234 55.34L1.36234 53.7C5.66234 52.5 7.98234 50.24 8.36234 47.42H2.16234V45.74H10.6023ZM9.76234 55.34C13.3823 55.34 15.7223 56.72 15.7223 58.96C15.7223 61.18 13.3823 62.54 9.76234 62.54C6.18234 62.54 3.80234 61.18 3.80234 58.96C3.80234 56.72 6.18234 55.34 9.76234 55.34ZM9.76234 60.92C12.1823 60.92 13.6823 60.24 13.6823 58.96C13.6823 57.68 12.1823 56.98 9.76234 56.98C7.34234 56.98 5.84234 57.68 5.84234 58.96C5.84234 60.24 7.34234 60.92 9.76234 60.92ZM34.8208 44.44V62.56H32.7408V52.06H28.8808V50.38H32.7408V44.44H34.8208ZM26.3608 48.92C26.3608 52.26 28.0608 55.56 30.8408 56.84L29.6208 58.5C27.5408 57.48 26.1208 55.5 25.3408 53.08C24.5408 55.66 23.0808 57.74 21.0008 58.8L19.7008 57.16C22.5208 55.78 24.2808 52.3 24.2808 48.92V45.94H26.3608V48.92ZM54.5592 55H47.3592V62.54H45.2792V55H38.2192V53.3H49.9592C50.4992 50.8 50.4792 48.9 50.4792 47.24H40.1792V45.58H52.4992V47.16C52.4992 48.86 52.4992 50.74 52.0392 53.3H54.5592V55Z" fill="#666666"/>
</svg>
