<svg width="56" height="67" viewBox="0 0 56 67" fill="none" xmlns="http://www.w3.org/2000/svg">
<path fill-rule="evenodd" clip-rule="evenodd" d="M26.77 36.8902C26.77 36.8902 14.6667 26.6968 14.6667 16.6668C14.6667 13.1306 16.0714 9.73922 18.5719 7.23874C21.0724 4.73825 24.4638 3.3335 28 3.3335C31.5362 3.3335 34.9276 4.73825 37.4281 7.23874C39.9286 9.73922 41.3334 13.1306 41.3334 16.6668C41.3334 26.6968 29.23 36.8902 29.23 36.8902C28.5567 37.5102 27.4484 37.5035 26.77 36.8902ZM28 22.5002C28.7661 22.5002 29.5246 22.3493 30.2323 22.0561C30.9401 21.763 31.5831 21.3333 32.1248 20.7916C32.6665 20.2499 33.0962 19.6069 33.3893 18.8991C33.6825 18.1914 33.8334 17.4329 33.8334 16.6668C33.8334 15.9008 33.6825 15.1422 33.3893 14.4345C33.0962 13.7268 32.6665 13.0837 32.1248 12.542C31.5831 12.0004 30.9401 11.5707 30.2323 11.2775C29.5246 10.9844 28.7661 10.8335 28 10.8335C26.4529 10.8335 24.9692 11.4481 23.8752 12.542C22.7813 13.636 22.1667 15.1197 22.1667 16.6668C22.1667 18.2139 22.7813 19.6977 23.8752 20.7916C24.9692 21.8856 26.4529 22.5002 28 22.5002Z" fill="#172742"/>
<path d="M18.2223 53.34H15.4023V62.54H13.3423V44.48H15.4023V51.64H18.2223V53.34ZM7.74234 48.94C7.74234 52.16 9.44234 55.44 12.1423 56.76L10.8823 58.4C8.94234 57.38 7.50234 55.5 6.72234 53.08C5.94234 55.58 4.44234 57.68 2.36234 58.74L1.10234 57.08C3.94234 55.7 5.68234 52.28 5.68234 48.94V45.98H7.74234V48.94ZM36.6208 53.46H33.8408V62.56H31.7608V44.48H33.8408V51.74H36.6208V53.46ZM26.0808 47.26H30.3008V48.94H19.7208V47.26H24.0208V44.74H26.0808V47.26ZM25.0808 50.22C27.6408 50.22 29.5608 51.96 29.5608 54.44C29.5608 56.92 27.6408 58.66 25.0808 58.66C22.4608 58.66 20.6008 56.92 20.6008 54.44C20.6008 51.96 22.4608 50.22 25.0808 50.22ZM25.0808 56.96C26.5408 56.96 27.6008 55.96 27.6008 54.44C27.6008 52.92 26.5408 51.92 25.0808 51.92C23.6208 51.92 22.5608 52.92 22.5608 54.44C22.5608 55.96 23.6208 56.96 25.0808 56.96ZM54.5592 55H47.3592V62.54H45.2792V55H38.2192V53.3H49.9592C50.4992 50.8 50.4792 48.9 50.4792 47.24H40.1792V45.58H52.4992V47.16C52.4992 48.86 52.4992 50.74 52.0392 53.3H54.5592V55Z" fill="#333333"/>
</svg>
