<svg width="40" height="67" viewBox="0 0 40 67" fill="none" xmlns="http://www.w3.org/2000/svg">
<path fill-rule="evenodd" clip-rule="evenodd" d="M18.77 36.8902C18.77 36.8902 6.66669 26.6968 6.66669 16.6668C6.66669 13.1306 8.07145 9.73922 10.5719 7.23874C13.0724 4.73825 16.4638 3.3335 20 3.3335C23.5362 3.3335 26.9276 4.73825 29.4281 7.23874C31.9286 9.73922 33.3334 13.1306 33.3334 16.6668C33.3334 26.6968 21.23 36.8902 21.23 36.8902C20.5567 37.5102 19.4484 37.5035 18.77 36.8902ZM20 22.5002C20.7661 22.5002 21.5246 22.3493 22.2323 22.0561C22.9401 21.763 23.5831 21.3333 24.1248 20.7916C24.6665 20.2499 25.0962 19.6069 25.3893 18.8991C25.6825 18.1914 25.8334 17.4329 25.8334 16.6668C25.8334 15.9008 25.6825 15.1422 25.3893 14.4345C25.0962 13.7268 24.6665 13.0837 24.1248 12.542C23.5831 12.0004 22.9401 11.5707 22.2323 11.2775C21.5246 10.9844 20.7661 10.8335 20 10.8335C18.4529 10.8335 16.9692 11.4481 15.8752 12.542C14.7813 13.636 14.1667 15.1197 14.1667 16.6668C14.1667 18.2139 14.7813 19.6977 15.8752 20.7916C16.9692 21.8856 18.4529 22.5002 20 22.5002Z" fill="#172742"/>
<path d="M18.1216 44.44V62.56H16.0416V52.06H12.1816V50.38H16.0416V44.44H18.1216ZM9.66156 48.92C9.66156 52.26 11.3616 55.56 14.1416 56.84L12.9216 58.5C10.8416 57.48 9.42156 55.5 8.64156 53.08C7.84156 55.66 6.38156 57.74 4.30156 58.8L3.00156 57.16C5.82156 55.78 7.58156 52.3 7.58156 48.92V45.94H9.66156V48.92ZM37.86 55H30.66V62.54H28.58V55H21.52V53.3H33.26C33.8 50.8 33.78 48.9 33.78 47.24H23.48V45.58H35.8V47.16C35.8 48.86 35.8 50.74 35.34 53.3H37.86V55Z" fill="#333333"/>
</svg>
