<svg width="45" height="45" viewBox="0 0 45 45" fill="none" xmlns="http://www.w3.org/2000/svg">
<path d="M7.5 22.5C7.99728 22.5 8.47419 22.6975 8.82582 23.0492C9.17746 23.4008 9.375 23.8777 9.375 24.375C9.375 24.8723 9.17746 25.3492 8.82582 25.7008C8.47419 26.0525 7.99728 26.25 7.5 26.25H5.625C5.12772 26.25 4.65081 26.0525 4.29917 25.7008C3.94754 25.3492 3.75 24.8723 3.75 24.375C3.75 23.8777 3.94754 23.4008 4.29917 23.0492C4.65081 22.6975 5.12772 22.5 5.625 22.5H7.5ZM39.375 22.5C39.8723 22.5 40.3492 22.6975 40.7008 23.0492C41.0525 23.4008 41.25 23.8777 41.25 24.375C41.25 24.8723 41.0525 25.3492 40.7008 25.7008C40.3492 26.0525 39.8723 26.25 39.375 26.25H37.5C37.0027 26.25 36.5258 26.0525 36.1742 25.7008C35.8225 25.3492 35.625 24.8723 35.625 24.375C35.625 23.8777 35.8225 23.4008 36.1742 23.0492C36.5258 22.6975 37.0027 22.5 37.5 22.5H39.375ZM11.8256 11.0494L13.1381 12.3619C13.4797 12.7155 13.6687 13.1891 13.6644 13.6808C13.6601 14.1724 13.4629 14.6426 13.1153 14.9903C12.7676 15.3379 12.2974 15.5351 11.8058 15.5394C11.3141 15.5437 10.8405 15.3547 10.4869 15.0131L9.17438 13.7006C8.83283 13.347 8.64384 12.8734 8.64811 12.3817C8.65238 11.8901 8.84958 11.4199 9.19722 11.0722C9.54486 10.7246 10.0151 10.5274 10.5067 10.5231C10.9984 10.5188 11.472 10.7078 11.8256 11.0494ZM35.8256 11.0494C36.1771 11.401 36.3746 11.8778 36.3746 12.375C36.3746 12.8722 36.1771 13.349 35.8256 13.7006L34.5131 15.0131C34.1595 15.3547 33.6859 15.5437 33.1942 15.5394C32.7026 15.5351 32.2324 15.3379 31.8847 14.9903C31.5371 14.6426 31.3399 14.1724 31.3356 13.6808C31.3313 13.1891 31.5203 12.7155 31.8619 12.3619L33.1744 11.0494C33.526 10.6979 34.0028 10.5004 34.5 10.5004C34.9972 10.5004 35.474 10.6979 35.8256 11.0494ZM22.5 5.625C22.9973 5.625 23.4742 5.82254 23.8258 6.17417C24.1775 6.52581 24.375 7.00272 24.375 7.5V9.375C24.375 9.87228 24.1775 10.3492 23.8258 10.7008C23.4742 11.0525 22.9973 11.25 22.5 11.25C22.0027 11.25 21.5258 11.0525 21.1742 10.7008C20.8225 10.3492 20.625 9.87228 20.625 9.375V7.5C20.625 7.00272 20.8225 6.52581 21.1742 6.17417C21.5258 5.82254 22.0027 5.625 22.5 5.625ZM5.625 30H39.375C39.8723 30 40.3492 30.1975 40.7008 30.5492C41.0525 30.9008 41.25 31.3777 41.25 31.875C41.25 32.3723 41.0525 32.8492 40.7008 33.2008C40.3492 33.5525 39.8723 33.75 39.375 33.75H5.625C5.12772 33.75 4.65081 33.5525 4.29917 33.2008C3.94754 32.8492 3.75 32.3723 3.75 31.875C3.75 31.3777 3.94754 30.9008 4.29917 30.5492C4.65081 30.1975 5.12772 30 5.625 30ZM22.5 15C24.0572 14.9996 25.59 15.3871 26.9599 16.1275C28.3298 16.8679 29.4938 17.9379 30.3466 19.2408C31.1994 20.5437 31.7142 22.0386 31.8445 23.5903C31.9749 25.142 31.7166 26.7018 31.0931 28.1287H13.9069C13.2834 26.7018 13.0251 25.142 13.1555 23.5903C13.2858 22.0386 13.8006 20.5437 14.6534 19.2408C15.5062 17.9379 16.6702 16.8679 18.0401 16.1275C19.41 15.3871 20.9428 14.9996 22.5 15ZM22.5 35.625C22.9973 35.625 23.4742 35.8225 23.8258 36.1742C24.1775 36.5258 24.375 37.0027 24.375 37.5C24.375 37.9973 24.1775 38.4742 23.8258 38.8258C23.4742 39.1775 22.9973 39.375 22.5 39.375H13.125C12.6277 39.375 12.1508 39.1775 11.7992 38.8258C11.4475 38.4742 11.25 37.9973 11.25 37.5C11.25 37.0027 11.4475 36.5258 11.7992 36.1742C12.1508 35.8225 12.6277 35.625 13.125 35.625H22.5ZM31.875 35.625C32.3723 35.625 32.8492 35.8225 33.2008 36.1742C33.5525 36.5258 33.75 37.0027 33.75 37.5C33.75 37.9973 33.5525 38.4742 33.2008 38.8258C32.8492 39.1775 32.3723 39.375 31.875 39.375H30C29.5027 39.375 29.0258 39.1775 28.6742 38.8258C28.3225 38.4742 28.125 37.9973 28.125 37.5C28.125 37.0027 28.3225 36.5258 28.6742 36.1742C29.0258 35.8225 29.5027 35.625 30 35.625H31.875Z" fill="#F46F45"/>
</svg>
