<svg width="150" height="29" viewBox="0 0 150 29" fill="none" xmlns="http://www.w3.org/2000/svg">
<path d="M38.729 26.2551C37.9117 24.9214 38.424 23.701 39.7292 22.7448C42.9861 20.3794 43.8888 17.9888 43.8888 14.5037V3.84689C43.8888 1.6954 45.1208 1.1418 46.3894 1.1418C47.658 1.1418 48.89 1.70798 48.89 3.84689V14.4911C48.89 17.9133 49.8292 20.1906 53.0495 22.5183C54.3425 23.4871 54.8549 24.6949 54.0498 26.0286C53.5985 26.7458 52.9642 27.0855 52.2445 27.1232C51.7931 27.1232 51.3052 27.0603 50.8539 26.7206C49.0486 25.3869 47.6214 23.8268 46.5723 22.0779C45.5111 23.94 44.1937 25.5631 42.4982 26.6829C41.9493 27.0226 41.3516 27.249 40.6929 27.2742C39.9976 27.2994 39.2169 27.0855 38.729 26.2425V26.2551ZM58.7339 25.1101V15.095H55.0866C52.8788 15.095 52.464 14.1891 52.464 12.9184C52.464 11.7986 52.9154 10.8046 55.0866 10.8046H58.7339V3.84689C58.7339 1.75831 59.8805 1.1418 61.1735 1.1418C62.4665 1.1418 63.6131 1.70798 63.6131 3.84689V25.0976C63.6131 27.249 62.4665 27.8404 61.1735 27.8404C59.8805 27.8404 58.7339 27.1861 58.7339 25.0976V25.1101Z" fill="#172842"/>
<path d="M70.1148 18.0769C68.1509 18.0769 67.8215 17.3597 67.8215 16.1519C67.8215 15.1831 68.1509 14.252 70.1148 14.252H78.6534V12.5157C78.6534 12.1131 78.69 11.7986 78.7754 11.5847C78.2021 10.6159 78.5681 9.49612 79.7391 8.65313C81.1297 7.65917 82.0323 6.90426 82.3373 6.01096C82.4227 5.79706 82.4593 5.57059 82.4836 5.29379H79.8854C79.8245 5.88514 79.6781 6.45132 79.3975 7.00492C78.5193 8.99284 76.409 10.8675 73.4205 12.0754C72.8471 12.2893 72.1885 12.4528 71.5542 12.4151C70.8589 12.4151 69.6513 12.1383 69.4073 11.1066C69.1389 10.012 69.4683 9.08092 70.8223 8.46441C71.9933 7.89823 72.9081 7.34463 73.5424 6.75328C74.0548 6.28776 74.3597 5.78448 74.5061 5.29379H72.7862C70.6393 5.29379 70.188 4.45081 70.188 3.43169C70.188 2.18609 70.6393 1.46892 72.7862 1.46892H89.2536C91.3395 1.46892 91.8518 2.21125 91.8518 3.43169C91.8518 4.46339 91.3395 5.29379 89.2536 5.29379H87.8996C87.9606 5.60834 88.046 5.88514 88.2045 6.09903C88.8632 7.09299 89.7415 7.72208 91.498 8.74121C92.791 9.45837 92.8886 10.5782 92.4983 11.484C92.1689 12.2012 91.437 12.5409 90.754 12.5409C90.1441 12.5157 89.6317 12.3899 89.1804 12.1005C87.6434 11.3205 86.2529 10.3265 85.5332 9.42062C85.0209 10.1378 84.2036 10.9179 83.3863 11.5344C83.4717 11.8489 83.5327 12.1509 83.5327 12.5032V14.2395H92.047C94.0108 14.2395 94.3402 15.1705 94.3402 16.1393C94.3402 17.3472 94.0108 18.0643 92.047 18.0643H70.1148V18.0769ZM87.3507 25.475V23.9778H72.5422C70.2124 23.9778 69.7976 23.009 69.7976 22.015C69.7976 20.7694 70.249 19.9893 72.5422 19.9893H89.8025C92.1323 19.9893 92.2421 20.7946 92.2421 22.015V25.475C92.2421 27.6265 91.0711 28.1801 89.8025 28.1801C88.5339 28.1801 87.3629 27.5636 87.3629 25.475H87.3507Z" fill="#172842"/>
<path d="M99.9633 27.0603C97.7554 27.0603 97.5237 26.1293 97.5237 24.8837V3.84689C97.5237 2.57612 97.7676 1.45634 99.9633 1.45634H107.746C109.954 1.45634 110.185 2.57612 110.185 3.84689V24.8837C110.185 26.1293 109.941 27.0603 107.746 27.0603H99.9633ZM105.416 22.7699V5.74674H102.281V22.7699H105.416ZM114.381 25.1101V3.84689C114.381 1.75831 115.528 1.1418 116.821 1.1418C118.114 1.1418 119.261 1.70798 119.261 3.84689V11.3205H121.164C123.371 11.3205 123.908 12.3522 123.908 13.4342C123.908 14.705 123.359 15.6109 121.164 15.6109H119.261V25.0976C119.261 27.249 118.114 27.8404 116.821 27.8404C115.528 27.8404 114.381 27.1861 114.381 25.0976V25.1101Z" fill="#172842"/>
<path d="M125.092 12.1635C124.579 10.9556 124.884 9.98681 126.324 9.26964C129.275 7.87306 130.154 6.43874 130.251 4.01045V3.29329C130.251 1.60733 131.544 1.30536 132.752 1.30536C134.082 1.30536 135.253 1.74573 135.253 3.45685V3.60783C135.338 6.71554 136.485 7.49561 138.9 8.80412C140.315 9.58419 140.925 10.5152 140.315 11.9747C139.985 12.7548 139.436 13.1826 138.68 13.3084C138.229 13.3965 137.717 13.3336 137.229 13.0945C135.692 12.2515 134.216 11.1318 132.91 9.86099C131.788 11.3582 130.373 12.6038 128.714 13.2203C128.141 13.4342 127.446 13.5978 126.811 13.4971C126.116 13.4091 125.421 12.9939 125.067 12.1635H125.092ZM129.263 28.1549C126.946 28.1549 126.824 27.312 126.824 26.1041V21.4362C126.824 20.5933 127.092 19.7251 129.117 19.7251H144.511V18.4544H129.117C127.092 18.4544 126.824 17.7749 126.824 16.6803C126.824 15.7744 127.153 14.8434 129.117 14.8434H147.097C149.061 14.8434 149.39 15.7744 149.39 16.6803V21.4362C149.39 22.556 149.024 23.1851 147.097 23.1851H131.715V24.4559H147.255C149.463 24.4559 150 25.1982 150 26.2928C150 27.5384 149.549 28.1549 147.255 28.1549H129.275H129.263ZM144.56 11.4715V3.84689C144.56 1.75831 145.706 1.1418 146.999 1.1418C148.292 1.1418 149.439 1.70798 149.439 3.84689V11.4715C149.439 13.5852 148.292 13.8997 146.999 13.8997C145.706 13.8997 144.56 13.56 144.56 11.4715Z" fill="#172842"/>
<path d="M9.33155 15.1957C13.1917 15.1957 16.3211 11.9679 16.3211 7.9863C16.3211 4.00467 13.1917 0.776927 9.33155 0.776927C5.47135 0.776927 2.34204 4.00467 2.34204 7.9863C2.34204 11.9679 5.47135 15.1957 9.33155 15.1957Z" fill="url(#paint0_linear_196_306)"/>
<path d="M26.5796 0.3114L26.726 0.94049C27.4701 4.16143 29.9097 6.66521 33.0202 7.4327L33.6301 7.58368C34.0327 7.68434 34.0327 8.2631 33.6301 8.36375L33.0202 8.51474C29.8975 9.28223 27.4701 11.7986 26.726 15.0069L26.5796 15.636C26.482 16.0512 25.9209 16.0512 25.8233 15.636L25.677 15.0069C24.9329 11.786 22.4933 9.28223 19.3828 8.51474L18.7729 8.36375C18.3703 8.2631 18.3703 7.68434 18.7729 7.58368L19.3828 7.4327C22.5055 6.66521 24.9329 4.14885 25.677 0.94049L25.8233 0.3114C25.9209 -0.1038 26.482 -0.1038 26.5796 0.3114Z" fill="#FBB058"/>
<path d="M33.8009 18.4166C32.264 18.4166 31.0685 18.857 30.0927 19.4861C30.0073 19.549 29.9219 19.6119 29.8243 19.6748C29.7756 19.7125 29.7268 19.7377 29.6902 19.7754C28.7387 20.4926 27.9946 21.3733 27.3359 22.1786C26.0673 23.7136 25.0671 24.9214 23.03 24.9214C20.9929 24.9214 19.9927 23.7136 18.7241 22.1786C17.3335 20.4926 15.5892 18.404 12.2347 18.404C8.88021 18.404 7.13589 20.4926 5.7453 22.1786C4.4767 23.7136 3.47646 24.9214 1.43938 24.9214C0.646499 24.9214 0 25.5882 0 26.4061C0 27.2239 0.646499 27.8907 1.43938 27.8907C4.80605 27.8907 6.53818 25.8021 7.92876 24.1162C9.19736 22.5812 10.1976 21.3733 12.2347 21.3733C14.2718 21.3733 15.272 22.5812 16.5406 24.1162C17.9312 25.8021 19.6755 27.8907 23.03 27.8907C26.3845 27.8907 28.1288 25.8021 29.5194 24.1162C29.7146 23.8771 29.9097 23.6506 30.0927 23.4368C31.1051 22.2541 32.0932 21.3985 33.8009 21.3985C34.5938 21.3985 35.2403 20.7317 35.2403 19.9138C35.2403 19.096 34.5938 18.4292 33.8009 18.4292V18.4166Z" fill="#172842"/>
<defs>
<linearGradient id="paint0_linear_196_306" x1="9.33155" y1="15.1957" x2="9.33155" y2="0.776927" gradientUnits="userSpaceOnUse">
<stop stop-color="#FBB058"/>
<stop offset="0.53" stop-color="#F79651"/>
<stop offset="1" stop-color="#F36F46"/>
</linearGradient>
</defs>
</svg>
