<svg width="45" height="45" viewBox="0 0 45 45" fill="none" xmlns="http://www.w3.org/2000/svg">
<circle cx="22.5" cy="22.5" r="22.5" fill="#172742"/>
<path d="M33.3125 11.75H13.625C13.3764 11.75 13.1379 11.8488 12.9621 12.0246C12.7863 12.2004 12.6875 12.4389 12.6875 12.6875V23.9375C12.6892 25.4288 13.2824 26.8586 14.3369 27.9131C15.3914 28.9676 16.8212 29.5608 18.3125 29.5625H24.875C26.3663 29.5608 27.7961 28.9676 28.8506 27.9131C29.9051 26.8586 30.4983 25.4288 30.5 23.9375V19.25H31.5547C32.5178 19.2489 33.4412 18.8658 34.1223 18.1848C34.8033 17.5037 35.1864 16.5803 35.1875 15.6172V13.625C35.1875 13.1277 34.99 12.6508 34.6383 12.2992C34.2867 11.9475 33.8098 11.75 33.3125 11.75ZM33.3125 15.6172C33.3125 16.0834 33.1273 16.5305 32.7976 16.8601C32.468 17.1898 32.0209 17.375 31.5547 17.375H30.5V13.625H33.3125V15.6172ZM31.4375 31.4375H11.75C11.5014 31.4375 11.2629 31.5363 11.0871 31.7121C10.9113 31.8879 10.8125 32.1264 10.8125 32.375C10.8125 32.6236 10.9113 32.8621 11.0871 33.0379C11.2629 33.2137 11.5014 33.3125 11.75 33.3125H31.4375C31.6861 33.3125 31.9246 33.2137 32.1004 33.0379C32.2762 32.8621 32.375 32.6236 32.375 32.375C32.375 32.1264 32.2762 31.8879 32.1004 31.7121C31.9246 31.5363 31.6861 31.4375 31.4375 31.4375Z" fill="white"/>
</svg>
