<svg width="45" height="45" viewBox="0 0 45 45" fill="none" xmlns="http://www.w3.org/2000/svg">
<circle cx="22.5" cy="22.5" r="22.5" fill="#172742"/>
<path fill-rule="evenodd" clip-rule="evenodd" d="M16.9999 13.5V15H15.0004C14.3438 15.0001 13.711 15.2464 13.227 15.6901C12.743 16.1338 12.4429 16.7429 12.3859 17.397L11.1469 31.647C11.1153 32.0094 11.1594 32.3744 11.2763 32.7188C11.3932 33.0633 11.5805 33.3797 11.8262 33.6479C12.0719 33.9162 12.3706 34.1305 12.7035 34.2771C13.0364 34.4238 13.3961 34.4997 13.7599 34.5H32.2399C32.6038 34.4999 32.9637 34.4242 33.2967 34.2776C33.6298 34.131 33.9287 33.9168 34.1746 33.6485C34.4204 33.3802 34.6078 33.0638 34.7249 32.7192C34.8419 32.3746 34.886 32.0095 34.8544 31.647L33.6154 17.397C33.5583 16.7426 33.258 16.1334 32.7737 15.6896C32.2894 15.2458 31.6563 14.9998 30.9994 15H28.9999V13.5C28.9999 11.9087 28.3677 10.3826 27.2425 9.25736C26.1173 8.13214 24.5912 7.5 22.9999 7.5C21.4086 7.5 19.8825 8.13214 18.7572 9.25736C17.632 10.3826 16.9999 11.9087 16.9999 13.5ZM22.9999 9.75C22.0053 9.75 21.0515 10.1451 20.3482 10.8483C19.645 11.5516 19.2499 12.5054 19.2499 13.5V15H26.7499V13.5C26.7499 12.5054 26.3548 11.5516 25.6515 10.8483C24.9483 10.1451 23.9944 9.75 22.9999 9.75ZM19.2499 21C19.2499 21.9946 19.645 22.9484 20.3482 23.6516C21.0515 24.3549 22.0053 24.75 22.9999 24.75C23.9944 24.75 24.9483 24.3549 25.6515 23.6516C26.3548 22.9484 26.7499 21.9946 26.7499 21V19.125C26.7499 18.8266 26.8684 18.5405 27.0794 18.3295C27.2904 18.1185 27.5765 18 27.8749 18C28.1733 18 28.4594 18.1185 28.6704 18.3295C28.8814 18.5405 28.9999 18.8266 28.9999 19.125V21C28.9999 22.5913 28.3677 24.1174 27.2425 25.2426C26.1173 26.3679 24.5912 27 22.9999 27C21.4086 27 19.8825 26.3679 18.7572 25.2426C17.632 24.1174 16.9999 22.5913 16.9999 21V19.125C16.9999 18.8266 17.1184 18.5405 17.3294 18.3295C17.5404 18.1185 17.8265 18 18.1249 18C18.4233 18 18.7094 18.1185 18.9204 18.3295C19.1314 18.5405 19.2499 18.8266 19.2499 19.125V21Z" fill="white"/>
</svg>
