<svg width="27" height="27" viewBox="0 0 27 27" fill="none" xmlns="http://www.w3.org/2000/svg">
<path fill-rule="evenodd" clip-rule="evenodd" d="M13.3333 0C14.4733 0 15.6427 0.0293335 16.776 0.0773335L18.1147 0.141333L19.396 0.217333L20.596 0.298667L21.692 0.384C22.8816 0.474522 24.0011 0.981912 24.8533 1.8168C25.7055 2.65169 26.2357 3.76053 26.3507 4.948L26.404 5.51467L26.504 6.728C26.5973 7.98533 26.6667 9.356 26.6667 10.6667C26.6667 11.9773 26.5973 13.348 26.504 14.6053L26.404 15.8187L26.3507 16.3853C26.2357 17.573 25.7052 18.682 24.8528 19.5169C24.0003 20.3519 22.8805 20.8591 21.6907 20.9493L20.5973 21.0333L19.3973 21.116L18.1147 21.192L16.776 21.256C15.6291 21.3057 14.4813 21.3315 13.3333 21.3333C12.1854 21.3315 11.0376 21.3057 9.89067 21.256L8.552 21.192L7.27067 21.116L6.07067 21.0333L4.97467 20.9493C3.78508 20.8588 2.6656 20.3514 1.81339 19.5165C0.961185 18.6816 0.430921 17.5728 0.316 16.3853L0.262667 15.8187L0.162667 14.6053C0.0611103 13.2948 0.00685285 11.9811 0 10.6667C0 9.356 0.0693333 7.98533 0.162667 6.728L0.262667 5.51467L0.316 4.948C0.430876 3.76074 0.960949 2.65207 1.81288 1.81721C2.66482 0.982345 3.78399 0.474822 4.97333 0.384L6.068 0.298667L7.268 0.217333L8.55067 0.141333L9.88933 0.0773335C11.0367 0.0276363 12.1849 0.00185277 13.3333 0ZM10.6667 7.43333V13.9C10.6667 14.516 11.3333 14.9 11.8667 14.5933L17.4667 11.36C17.5885 11.2899 17.6897 11.1888 17.7601 11.0671C17.8305 10.9454 17.8676 10.8073 17.8676 10.6667C17.8676 10.5261 17.8305 10.3879 17.7601 10.2662C17.6897 10.1445 17.5885 10.0435 17.4667 9.97333L11.8667 6.74133C11.745 6.6711 11.607 6.63413 11.4665 6.63415C11.3261 6.63418 11.1881 6.67119 11.0664 6.74146C10.9448 6.81174 10.8438 6.9128 10.7737 7.03449C10.7035 7.15617 10.6666 7.29419 10.6667 7.43467V7.43333Z" fill="white"/>
</svg>
