<svg width="28" height="28" viewBox="0 0 28 28" fill="none" xmlns="http://www.w3.org/2000/svg">
<path fill-rule="evenodd" clip-rule="evenodd" d="M8.70949 1.2435C10.078 1.1805 10.5143 1.1665 14.0003 1.1665C17.4863 1.1665 17.9227 1.18167 19.29 1.2435C20.6573 1.30534 21.5907 1.5235 22.4073 1.83967C23.2625 2.16284 24.0383 2.668 24.68 3.32134C25.3333 3.96184 25.8373 4.7365 26.1593 5.59284C26.4767 6.4095 26.6937 7.34284 26.7567 8.70784C26.8197 10.0787 26.8337 10.515 26.8337 13.9998C26.8337 17.4847 26.8185 17.9222 26.7567 19.2907C26.6948 20.6557 26.4767 21.589 26.1593 22.4057C25.8372 23.262 25.3324 24.038 24.68 24.6795C24.0383 25.3328 23.2625 25.8368 22.4073 26.1588C21.5907 26.4762 20.6573 26.6932 19.2923 26.7562C17.9227 26.8192 17.4863 26.8332 14.0003 26.8332C10.5143 26.8332 10.078 26.818 8.70949 26.7562C7.34449 26.6943 6.41116 26.4762 5.59449 26.1588C4.73812 25.8367 3.96219 25.3319 3.32066 24.6795C2.668 24.0384 2.16279 23.2629 1.84016 22.4068C1.52399 21.5902 1.30699 20.6568 1.24399 19.2918C1.18099 17.921 1.16699 17.4847 1.16699 13.9998C1.16699 10.515 1.18216 10.0775 1.24399 8.71017C1.30583 7.34284 1.52399 6.4095 1.84016 5.59284C2.16314 4.73667 2.66875 3.96113 3.32183 3.32017C3.96256 2.66765 4.73768 2.16246 5.59333 1.83967C6.40999 1.5235 7.34449 1.3065 8.70949 1.2435ZM19.185 3.5535C17.8317 3.49167 17.4257 3.47884 13.9992 3.47884C10.5727 3.47884 10.1667 3.49167 8.81332 3.5535C7.56149 3.61067 6.88249 3.8195 6.42983 3.99567C5.83133 4.229 5.40316 4.5055 4.95399 4.95467C4.52784 5.36859 4.20011 5.87295 3.99499 6.4305C3.81883 6.88317 3.60999 7.56217 3.55283 8.814C3.49099 10.1673 3.47816 10.5733 3.47816 13.9998C3.47816 17.4263 3.49099 17.8323 3.55283 19.1857C3.60999 20.4375 3.81883 21.1165 3.99499 21.5692C4.20033 22.1257 4.52816 22.6308 4.95399 23.045C5.36816 23.4708 5.87333 23.7987 6.42983 24.004C6.88249 24.1802 7.56149 24.389 8.81332 24.4462C10.1667 24.508 10.5715 24.5208 13.9992 24.5208C17.4268 24.5208 17.8317 24.508 19.185 24.4462C20.4368 24.389 21.1158 24.1802 21.5685 24.004C22.167 23.7707 22.5952 23.4942 23.0443 23.045C23.4702 22.6308 23.798 22.1257 24.0033 21.5692C24.1795 21.1165 24.3883 20.4375 24.4455 19.1857C24.5073 17.8323 24.5202 17.4263 24.5202 13.9998C24.5202 10.5733 24.5073 10.1673 24.4455 8.814C24.3883 7.56217 24.1795 6.88317 24.0033 6.4305C23.77 5.832 23.4935 5.40384 23.0443 4.95467C22.6304 4.52852 22.126 4.20079 21.5685 3.99567C21.1158 3.8195 20.4368 3.61067 19.185 3.5535ZM12.36 17.956C13.2754 18.3371 14.2948 18.3885 15.2439 18.1015C16.1931 17.8145 17.0131 17.2069 17.564 16.3825C18.115 15.558 18.3626 14.5679 18.2645 13.5811C18.1665 12.5944 17.729 11.6723 17.0267 10.9723C16.5789 10.5249 16.0376 10.1823 15.4415 9.96918C14.8455 9.75607 14.2097 9.67776 13.5797 9.73989C12.9498 9.80202 12.3415 10.003 11.7986 10.3285C11.2557 10.6539 10.7917 11.0957 10.44 11.622C10.0883 12.1483 9.85771 12.746 9.76476 13.3721C9.67181 13.9982 9.71884 14.6372 9.90246 15.2429C10.0861 15.8487 10.4017 16.4062 10.8267 16.8753C11.2516 17.3445 11.7753 17.7136 12.36 17.956ZM9.33599 9.3355C9.94852 8.72297 10.6757 8.23709 11.476 7.90559C12.2763 7.57409 13.1341 7.40347 14.0003 7.40347C14.8666 7.40347 15.7243 7.57409 16.5246 7.90559C17.325 8.23709 18.0521 8.72297 18.6647 9.3355C19.2772 9.94803 19.7631 10.6752 20.0946 11.4755C20.4261 12.2758 20.5967 13.1336 20.5967 13.9998C20.5967 14.8661 20.4261 15.7238 20.0946 16.5242C19.7631 17.3245 19.2772 18.0516 18.6647 18.6642C17.4276 19.9012 15.7498 20.5962 14.0003 20.5962C12.2509 20.5962 10.573 19.9012 9.33599 18.6642C8.09893 17.4271 7.40396 15.7493 7.40396 13.9998C7.40396 12.2504 8.09893 10.5726 9.33599 9.3355ZM22.0597 8.38584C22.2114 8.24265 22.333 8.07046 22.417 7.87947C22.5011 7.68848 22.5459 7.48257 22.549 7.27392C22.552 7.06528 22.5132 6.85814 22.4347 6.66478C22.3563 6.47142 22.2398 6.29577 22.0923 6.14822C21.9447 6.00067 21.7691 5.88422 21.5757 5.80577C21.3824 5.72733 21.1752 5.68848 20.9666 5.69152C20.7579 5.69456 20.552 5.73943 20.361 5.82348C20.17 5.90753 19.9978 6.02905 19.8547 6.18084C19.5762 6.47604 19.4237 6.86815 19.4296 7.27392C19.4356 7.6797 19.5994 8.0672 19.8863 8.35415C20.1733 8.64111 20.5608 8.80494 20.9666 8.81085C21.3723 8.81677 21.7645 8.66431 22.0597 8.38584Z" fill="white"/>
</svg>
