<svg width="40" height="40" viewBox="0 0 40 40" fill="none" xmlns="http://www.w3.org/2000/svg">
<path fill-rule="evenodd" clip-rule="evenodd" d="M12.4415 1.7765C14.3965 1.6865 15.0198 1.6665 19.9998 1.6665C24.9798 1.6665 25.6032 1.68817 27.5565 1.7765C29.5098 1.86484 30.8432 2.1765 32.0098 2.62817C33.2315 3.08984 34.3398 3.8115 35.2565 4.74484C36.1898 5.65984 36.9098 6.7665 37.3698 7.98984C37.8232 9.1565 38.1332 10.4898 38.2232 12.4398C38.3132 14.3982 38.3332 15.0215 38.3332 19.9998C38.3332 24.9782 38.3115 25.6032 38.2232 27.5582C38.1348 29.5082 37.8232 30.8415 37.3698 32.0082C36.9096 33.2316 36.1885 34.34 35.2565 35.2565C34.3398 36.1898 33.2315 36.9098 32.0098 37.3698C30.8432 37.8232 29.5098 38.1332 27.5598 38.2232C25.6032 38.3132 24.9798 38.3332 19.9998 38.3332C15.0198 38.3332 14.3965 38.3115 12.4415 38.2232C10.4915 38.1348 9.15817 37.8232 7.9915 37.3698C6.76811 36.9096 5.65964 36.1885 4.74317 35.2565C3.8108 34.3407 3.08908 33.2328 2.62817 32.0098C2.1765 30.8432 1.8665 29.5098 1.7765 27.5598C1.6865 25.6015 1.6665 24.9782 1.6665 19.9998C1.6665 15.0215 1.68817 14.3965 1.7765 12.4432C1.86484 10.4898 2.1765 9.1565 2.62817 7.98984C3.08957 6.76674 3.81187 5.65883 4.74484 4.74317C5.66018 3.811 6.76748 3.08929 7.98984 2.62817C9.1565 2.1765 10.4915 1.8665 12.4415 1.7765ZM27.4065 5.0765C25.4732 4.98817 24.8932 4.96984 19.9982 4.96984C15.1032 4.96984 14.5232 4.98817 12.5898 5.0765C10.8015 5.15817 9.8315 5.4565 9.18484 5.70817C8.32984 6.0415 7.71817 6.4365 7.0765 7.07817C6.46772 7.66949 5.99953 8.39 5.7065 9.1865C5.45484 9.83317 5.1565 10.8032 5.07484 12.5915C4.9865 14.5248 4.96817 15.1048 4.96817 19.9998C4.96817 24.8948 4.9865 25.4748 5.07484 27.4082C5.1565 29.1965 5.45484 30.1665 5.7065 30.8132C5.99984 31.6082 6.46817 32.3298 7.0765 32.9215C7.66817 33.5298 8.38984 33.9982 9.18484 34.2915C9.8315 34.5432 10.8015 34.8415 12.5898 34.9232C14.5232 35.0115 15.1015 35.0298 19.9982 35.0298C24.8948 35.0298 25.4732 35.0115 27.4065 34.9232C29.1948 34.8415 30.1648 34.5432 30.8115 34.2915C31.6665 33.9582 32.2782 33.5632 32.9198 32.9215C33.5282 32.3298 33.9965 31.6082 34.2898 30.8132C34.5415 30.1665 34.8398 29.1965 34.9215 27.4082C35.0098 25.4748 35.0282 24.8948 35.0282 19.9998C35.0282 15.1048 35.0098 14.5248 34.9215 12.5915C34.8398 10.8032 34.5415 9.83317 34.2898 9.1865C33.9565 8.3315 33.5615 7.71984 32.9198 7.07817C32.3285 6.46938 31.608 6.00119 30.8115 5.70817C30.1648 5.4565 29.1948 5.15817 27.4065 5.0765ZM17.6565 25.6515C18.9643 26.1959 20.4205 26.2694 21.7764 25.8594C23.1323 25.4494 24.3038 24.5814 25.0909 23.4036C25.8779 22.2258 26.2316 20.8113 26.0916 19.4017C25.9516 17.9921 25.3265 16.6748 24.3232 15.6748C23.6836 15.0356 22.9102 14.5462 22.0587 14.2417C21.2073 13.9373 20.2989 13.8254 19.399 13.9142C18.4991 14.003 17.6301 14.2901 16.8545 14.7551C16.0789 15.22 15.4161 15.8511 14.9137 16.6029C14.4113 17.3548 14.0818 18.2087 13.949 19.1031C13.8162 19.9976 13.8834 20.9103 14.1457 21.7757C14.4081 22.6411 14.859 23.4375 15.466 24.1077C16.0731 24.7779 16.8212 25.3051 17.6565 25.6515ZM13.3365 13.3365C14.2115 12.4615 15.2504 11.7673 16.3937 11.2938C17.537 10.8202 18.7623 10.5765 19.9998 10.5765C21.2373 10.5765 22.4627 10.8202 23.606 11.2938C24.7493 11.7673 25.7881 12.4615 26.6632 13.3365C27.5382 14.2115 28.2323 15.2504 28.7059 16.3937C29.1795 17.537 29.4232 18.7623 29.4232 19.9998C29.4232 21.2373 29.1795 22.4627 28.7059 23.606C28.2323 24.7493 27.5382 25.7881 26.6632 26.6632C24.8959 28.4304 22.4991 29.4232 19.9998 29.4232C17.5006 29.4232 15.1037 28.4304 13.3365 26.6632C11.5693 24.8959 10.5765 22.4991 10.5765 19.9998C10.5765 17.5006 11.5693 15.1037 13.3365 13.3365ZM31.5132 11.9798C31.73 11.7753 31.9036 11.5293 32.0237 11.2565C32.1437 10.9836 32.2079 10.6895 32.2122 10.3914C32.2165 10.0933 32.161 9.79742 32.049 9.52119C31.9369 9.24496 31.7706 8.99402 31.5598 8.78324C31.349 8.57245 31.098 8.4061 30.8218 8.29403C30.5456 8.18197 30.2497 8.12646 29.9516 8.13081C29.6536 8.13515 29.3594 8.19926 29.0865 8.31933C28.8137 8.4394 28.5677 8.613 28.3632 8.82984C27.9654 9.25155 27.7476 9.81171 27.756 10.3914C27.7645 10.9711 27.9985 11.5246 28.4084 11.9346C28.8184 12.3445 29.3719 12.5786 29.9516 12.587C30.5313 12.5955 31.0915 12.3777 31.5132 11.9798Z" fill="#F46F45"/>
</svg>
