<svg width="44" height="44" viewBox="0 0 44 44" fill="none" xmlns="http://www.w3.org/2000/svg">
<path d="M27.3223 21.8582H30.0546V29.5997L35.2641 32.6781L33.898 34.9003L27.3223 30.9658V21.8582ZM41.8945 29.1443C41.8945 32.526 40.5511 35.7692 38.1599 38.1604C35.7687 40.5516 32.5255 41.8949 29.1438 41.8949C23.6793 41.8949 18.9433 38.3976 17.1582 33.516L14.5717 32.6052L4.84478 36.3757L4.55334 36.4304C4.31179 36.4304 4.08013 36.3344 3.90933 36.1636C3.73853 35.9928 3.64258 35.7612 3.64258 35.5196V7.97828C3.64258 7.55933 3.91581 7.23146 4.29832 7.10395L14.5717 3.64307L25.5008 7.46825L35.2277 3.64307H35.5191C35.7607 3.64307 35.9923 3.73902 36.1631 3.90982C36.3339 4.08062 36.4299 4.31228 36.4299 4.55383V18.6706C39.7268 20.9475 41.8945 24.8091 41.8945 29.1443ZM16.3932 29.1443C16.3932 23.3701 20.2366 18.4884 25.5008 16.9219V11.1295L14.5717 7.2861V28.944L16.3932 29.5815V29.1443ZM29.1438 20.0367C26.7283 20.0367 24.4118 20.9963 22.7038 22.7043C20.9958 24.4123 20.0362 26.7288 20.0362 29.1443C20.0362 31.5598 20.9958 33.8764 22.7038 35.5844C24.4118 37.2924 26.7283 38.2519 29.1438 38.2519C31.5593 38.2519 33.8759 37.2924 35.5839 35.5844C37.2919 33.8764 38.2514 31.5598 38.2514 29.1443C38.2514 26.7288 37.2919 24.4123 35.5839 22.7043C33.8759 20.9963 31.5593 20.0367 29.1438 20.0367Z" fill="#F46F45"/>
</svg>
