<svg width="44" height="44" viewBox="0 0 44 44" fill="none" xmlns="http://www.w3.org/2000/svg">
<path d="M34.375 28.1875C33.0959 28.1893 31.8487 28.5867 30.8043 29.3252C29.76 30.0637 28.9696 31.1071 28.5416 32.3125H12.375C11.0986 32.3125 9.87457 31.8055 8.97205 30.903C8.06953 30.0004 7.5625 28.7764 7.5625 27.5C7.5625 26.2236 8.06953 24.9996 8.97205 24.097C9.87457 23.1945 11.0986 22.6875 12.375 22.6875H28.875C30.8807 22.6875 32.8043 21.8907 34.2225 20.4725C35.6407 19.0543 36.4375 17.1307 36.4375 15.125C36.4375 13.1193 35.6407 11.1957 34.2225 9.77751C32.8043 8.35926 30.8807 7.5625 28.875 7.5625H12.375C11.828 7.5625 11.3034 7.7798 10.9166 8.16659C10.5298 8.55339 10.3125 9.07799 10.3125 9.625C10.3125 10.172 10.5298 10.6966 10.9166 11.0834C11.3034 11.4702 11.828 11.6875 12.375 11.6875H28.875C29.7867 11.6875 30.661 12.0497 31.3057 12.6943C31.9503 13.339 32.3125 14.2133 32.3125 15.125C32.3125 16.0367 31.9503 16.911 31.3057 17.5557C30.661 18.2003 29.7867 18.5625 28.875 18.5625H12.375C10.0046 18.5625 7.73134 19.5041 6.05523 21.1802C4.37913 22.8563 3.4375 25.1296 3.4375 27.5C3.4375 29.8704 4.37913 32.1437 6.05523 33.8198C7.73134 35.4959 10.0046 36.4375 12.375 36.4375H28.5416C28.9197 37.507 29.5845 38.452 30.4635 39.1691C31.3424 39.8863 32.4015 40.348 33.5252 40.5038C34.6488 40.6597 35.7936 40.5036 36.8345 40.0527C37.8755 39.6019 38.7724 38.8735 39.4273 37.9473C40.0822 37.0211 40.4699 35.9326 40.548 34.8009C40.6261 33.6692 40.3916 32.5379 39.8701 31.5305C39.3486 30.5231 38.5602 29.6784 37.5911 29.0889C36.6219 28.4993 35.5094 28.1875 34.375 28.1875ZM34.375 36.4375C33.9671 36.4375 33.5683 36.3165 33.2291 36.0899C32.89 35.8633 32.6256 35.5412 32.4695 35.1643C32.3134 34.7874 32.2725 34.3727 32.3521 33.9726C32.4317 33.5725 32.6281 33.205 32.9166 32.9166C33.205 32.6281 33.5725 32.4317 33.9726 32.3521C34.3727 32.2725 34.7874 32.3134 35.1643 32.4695C35.5412 32.6256 35.8633 32.89 36.0899 33.2291C36.3165 33.5683 36.4375 33.9671 36.4375 34.375C36.4375 34.922 36.2202 35.4466 35.8334 35.8334C35.4466 36.2202 34.922 36.4375 34.375 36.4375Z" fill="#F46F45"/>
</svg>
